<mxfile host="app.diagrams.net" modified="2023-10-23T23:59:01.065Z" agent="Mozilla/5.0 (Macintosh; Intel Mac OS X 10_15_7) AppleWebKit/537.36 (KHTML, like Gecko) Chrome/116.0.0.0 Safari/537.36" etag="4tSUPwO3tyFipqlqFRvB" version="22.0.6" type="github">
  <diagram id="C5RBs43oDa-KdzZeNtuy" name="Page-1">
    <mxGraphModel dx="1688" dy="769" grid="1" gridSize="10" guides="1" tooltips="1" connect="1" arrows="1" fold="1" page="1" pageScale="1" pageWidth="827" pageHeight="1169" math="0" shadow="0">
      <root>
        <mxCell id="WIyWlLk6GJQsqaUBKTNV-0" />
        <mxCell id="WIyWlLk6GJQsqaUBKTNV-1" parent="WIyWlLk6GJQsqaUBKTNV-0" />
        <mxCell id="EJV__ujZelWqGnJyHGr9-46" value="" style="group" parent="WIyWlLk6GJQsqaUBKTNV-1" vertex="1" connectable="0">
          <mxGeometry x="211" y="160" width="405" height="770" as="geometry" />
        </mxCell>
        <mxCell id="EJV__ujZelWqGnJyHGr9-0" value="User Registration" style="html=1;whiteSpace=wrap;" parent="EJV__ujZelWqGnJyHGr9-46" vertex="1">
          <mxGeometry x="90" width="110" height="50" as="geometry" />
        </mxCell>
        <mxCell id="EJV__ujZelWqGnJyHGr9-2" value="" style="ellipse;html=1;shape=startState;fillColor=#000000;strokeColor=#6A8CFF;" parent="EJV__ujZelWqGnJyHGr9-46" vertex="1">
          <mxGeometry x="10" y="10" width="30" height="30" as="geometry" />
        </mxCell>
        <mxCell id="EJV__ujZelWqGnJyHGr9-3" value="" style="edgeStyle=orthogonalEdgeStyle;html=1;verticalAlign=bottom;endArrow=open;endSize=8;strokeColor=#6A8CFF;rounded=0;entryX=0;entryY=0.5;entryDx=0;entryDy=0;" parent="EJV__ujZelWqGnJyHGr9-46" source="EJV__ujZelWqGnJyHGr9-2" target="EJV__ujZelWqGnJyHGr9-0" edge="1">
          <mxGeometry relative="1" as="geometry">
            <mxPoint x="-95" as="targetPoint" />
          </mxGeometry>
        </mxCell>
        <mxCell id="EJV__ujZelWqGnJyHGr9-5" value="Start" style="text;html=1;align=center;verticalAlign=middle;resizable=0;points=[];autosize=1;strokeColor=none;fillColor=none;" parent="EJV__ujZelWqGnJyHGr9-46" vertex="1">
          <mxGeometry y="28" width="50" height="30" as="geometry" />
        </mxCell>
        <mxCell id="EJV__ujZelWqGnJyHGr9-6" value="Report Completion" style="html=1;whiteSpace=wrap;" parent="EJV__ujZelWqGnJyHGr9-46" vertex="1">
          <mxGeometry x="90" y="90" width="110" height="50" as="geometry" />
        </mxCell>
        <mxCell id="EJV__ujZelWqGnJyHGr9-7" style="edgeStyle=orthogonalEdgeStyle;rounded=0;orthogonalLoop=1;jettySize=auto;html=1;exitX=0.5;exitY=1;exitDx=0;exitDy=0;entryX=0.5;entryY=0;entryDx=0;entryDy=0;" parent="EJV__ujZelWqGnJyHGr9-46" source="EJV__ujZelWqGnJyHGr9-0" target="EJV__ujZelWqGnJyHGr9-6" edge="1">
          <mxGeometry relative="1" as="geometry" />
        </mxCell>
        <mxCell id="EJV__ujZelWqGnJyHGr9-8" value="Volunteers assessment" style="html=1;whiteSpace=wrap;" parent="EJV__ujZelWqGnJyHGr9-46" vertex="1">
          <mxGeometry x="90" y="180" width="110" height="50" as="geometry" />
        </mxCell>
        <mxCell id="EJV__ujZelWqGnJyHGr9-9" style="edgeStyle=orthogonalEdgeStyle;rounded=0;orthogonalLoop=1;jettySize=auto;html=1;exitX=0.5;exitY=1;exitDx=0;exitDy=0;entryX=0.5;entryY=0;entryDx=0;entryDy=0;" parent="EJV__ujZelWqGnJyHGr9-46" source="EJV__ujZelWqGnJyHGr9-6" target="EJV__ujZelWqGnJyHGr9-8" edge="1">
          <mxGeometry relative="1" as="geometry" />
        </mxCell>
        <mxCell id="EJV__ujZelWqGnJyHGr9-11" value="High Rating?" style="rhombus;whiteSpace=wrap;html=1;fontColor=#000000;fillColor=#9DC5D0;strokeColor=#6889FA;" parent="EJV__ujZelWqGnJyHGr9-46" vertex="1">
          <mxGeometry x="98.5" y="270" width="93" height="70" as="geometry" />
        </mxCell>
        <mxCell id="EJV__ujZelWqGnJyHGr9-14" style="edgeStyle=orthogonalEdgeStyle;rounded=0;orthogonalLoop=1;jettySize=auto;html=1;exitX=0.5;exitY=1;exitDx=0;exitDy=0;entryX=0.5;entryY=0;entryDx=0;entryDy=0;" parent="EJV__ujZelWqGnJyHGr9-46" source="EJV__ujZelWqGnJyHGr9-8" target="EJV__ujZelWqGnJyHGr9-11" edge="1">
          <mxGeometry relative="1" as="geometry" />
        </mxCell>
        <mxCell id="EJV__ujZelWqGnJyHGr9-12" value="no" style="edgeStyle=orthogonalEdgeStyle;html=1;align=left;verticalAlign=bottom;endArrow=open;endSize=8;strokeColor=#6382ED;rounded=0;entryX=0;entryY=0.5;entryDx=0;entryDy=0;" parent="EJV__ujZelWqGnJyHGr9-46" source="EJV__ujZelWqGnJyHGr9-11" target="EJV__ujZelWqGnJyHGr9-15" edge="1">
          <mxGeometry x="-1" relative="1" as="geometry">
            <mxPoint x="310" y="305" as="targetPoint" />
            <Array as="points" />
          </mxGeometry>
        </mxCell>
        <mxCell id="EJV__ujZelWqGnJyHGr9-13" value="yes" style="edgeStyle=orthogonalEdgeStyle;html=1;align=left;verticalAlign=top;endArrow=open;endSize=8;strokeColor=#5F7CE3;rounded=0;entryX=0.5;entryY=0;entryDx=0;entryDy=0;" parent="EJV__ujZelWqGnJyHGr9-46" source="EJV__ujZelWqGnJyHGr9-11" target="EJV__ujZelWqGnJyHGr9-16" edge="1">
          <mxGeometry x="-1" relative="1" as="geometry">
            <mxPoint x="145" y="400" as="targetPoint" />
          </mxGeometry>
        </mxCell>
        <mxCell id="EJV__ujZelWqGnJyHGr9-15" value="Report waits in review queue" style="html=1;whiteSpace=wrap;" parent="EJV__ujZelWqGnJyHGr9-46" vertex="1">
          <mxGeometry x="250" y="280" width="110" height="50" as="geometry" />
        </mxCell>
        <mxCell id="EJV__ujZelWqGnJyHGr9-16" value="Reviewer edits and rates the report" style="html=1;whiteSpace=wrap;" parent="EJV__ujZelWqGnJyHGr9-46" vertex="1">
          <mxGeometry x="90" y="380" width="110" height="50" as="geometry" />
        </mxCell>
        <mxCell id="EJV__ujZelWqGnJyHGr9-22" value="High Rating?" style="rhombus;whiteSpace=wrap;html=1;fontColor=#000000;fillColor=#9DC5D0;strokeColor=#617FE8;" parent="EJV__ujZelWqGnJyHGr9-46" vertex="1">
          <mxGeometry x="99" y="470" width="92.5" height="70" as="geometry" />
        </mxCell>
        <mxCell id="EJV__ujZelWqGnJyHGr9-25" style="edgeStyle=orthogonalEdgeStyle;rounded=0;orthogonalLoop=1;jettySize=auto;html=1;" parent="EJV__ujZelWqGnJyHGr9-46" source="EJV__ujZelWqGnJyHGr9-16" target="EJV__ujZelWqGnJyHGr9-22" edge="1">
          <mxGeometry relative="1" as="geometry" />
        </mxCell>
        <mxCell id="EJV__ujZelWqGnJyHGr9-23" value="no" style="edgeStyle=orthogonalEdgeStyle;html=1;align=left;verticalAlign=bottom;endArrow=open;endSize=8;strokeColor=#617FE8;rounded=0;entryX=0;entryY=0.5;entryDx=0;entryDy=0;" parent="EJV__ujZelWqGnJyHGr9-46" source="EJV__ujZelWqGnJyHGr9-22" target="EJV__ujZelWqGnJyHGr9-26" edge="1">
          <mxGeometry x="-1" relative="1" as="geometry">
            <mxPoint x="360" y="510" as="targetPoint" />
          </mxGeometry>
        </mxCell>
        <mxCell id="EJV__ujZelWqGnJyHGr9-24" value="yes" style="edgeStyle=orthogonalEdgeStyle;html=1;align=left;verticalAlign=top;endArrow=open;endSize=8;strokeColor=#698AFC;rounded=0;exitX=0.5;exitY=1;exitDx=0;exitDy=0;" parent="EJV__ujZelWqGnJyHGr9-46" source="EJV__ujZelWqGnJyHGr9-22" target="EJV__ujZelWqGnJyHGr9-27" edge="1">
          <mxGeometry x="-1" relative="1" as="geometry">
            <mxPoint x="145" y="580" as="targetPoint" />
            <Array as="points" />
          </mxGeometry>
        </mxCell>
        <mxCell id="EJV__ujZelWqGnJyHGr9-26" value="Reprort deleted" style="html=1;whiteSpace=wrap;" parent="EJV__ujZelWqGnJyHGr9-46" vertex="1">
          <mxGeometry x="249" y="480" width="110" height="50" as="geometry" />
        </mxCell>
        <mxCell id="EJV__ujZelWqGnJyHGr9-27" value="" style="shape=line;html=1;strokeWidth=6;strokeColor=#6A8CFF;" parent="EJV__ujZelWqGnJyHGr9-46" vertex="1">
          <mxGeometry x="45" y="580" width="200" height="10" as="geometry" />
        </mxCell>
        <mxCell id="EJV__ujZelWqGnJyHGr9-28" value="" style="edgeStyle=orthogonalEdgeStyle;html=1;verticalAlign=bottom;endArrow=open;endSize=8;strokeColor=#698AFC;rounded=0;entryX=0.5;entryY=0;entryDx=0;entryDy=0;" parent="EJV__ujZelWqGnJyHGr9-46" source="EJV__ujZelWqGnJyHGr9-27" target="EJV__ujZelWqGnJyHGr9-34" edge="1">
          <mxGeometry relative="1" as="geometry">
            <mxPoint x="145" y="670" as="targetPoint" />
            <Array as="points">
              <mxPoint x="90" y="640" />
            </Array>
          </mxGeometry>
        </mxCell>
        <mxCell id="EJV__ujZelWqGnJyHGr9-35" value="Okay Rating" style="edgeLabel;html=1;align=center;verticalAlign=middle;resizable=0;points=[];" parent="EJV__ujZelWqGnJyHGr9-28" vertex="1" connectable="0">
          <mxGeometry x="-0.8279" y="1" relative="1" as="geometry">
            <mxPoint as="offset" />
          </mxGeometry>
        </mxCell>
        <mxCell id="EJV__ujZelWqGnJyHGr9-29" value="" style="edgeStyle=orthogonalEdgeStyle;html=1;verticalAlign=bottom;endArrow=open;endSize=8;strokeColor=#6A8CFF;rounded=0;exitX=0.825;exitY=1;exitDx=0;exitDy=0;exitPerimeter=0;entryX=0.5;entryY=0;entryDx=0;entryDy=0;" parent="EJV__ujZelWqGnJyHGr9-46" source="EJV__ujZelWqGnJyHGr9-27" target="EJV__ujZelWqGnJyHGr9-31" edge="1">
          <mxGeometry relative="1" as="geometry">
            <mxPoint x="210" y="670" as="targetPoint" />
            <mxPoint x="155" y="600" as="sourcePoint" />
            <Array as="points" />
          </mxGeometry>
        </mxCell>
        <mxCell id="EJV__ujZelWqGnJyHGr9-32" value="Amazing Rating" style="edgeLabel;html=1;align=center;verticalAlign=middle;resizable=0;points=[];" parent="EJV__ujZelWqGnJyHGr9-29" vertex="1" connectable="0">
          <mxGeometry x="-0.7827" y="3" relative="1" as="geometry">
            <mxPoint x="17" as="offset" />
          </mxGeometry>
        </mxCell>
        <mxCell id="EJV__ujZelWqGnJyHGr9-31" value="Report published" style="html=1;whiteSpace=wrap;" parent="EJV__ujZelWqGnJyHGr9-46" vertex="1">
          <mxGeometry x="180" y="640" width="60" height="40" as="geometry" />
        </mxCell>
        <mxCell id="EJV__ujZelWqGnJyHGr9-37" style="edgeStyle=orthogonalEdgeStyle;rounded=0;orthogonalLoop=1;jettySize=auto;html=1;exitX=0;exitY=0.5;exitDx=0;exitDy=0;entryX=0;entryY=0.5;entryDx=0;entryDy=0;" parent="EJV__ujZelWqGnJyHGr9-46" source="EJV__ujZelWqGnJyHGr9-34" target="EJV__ujZelWqGnJyHGr9-16" edge="1">
          <mxGeometry relative="1" as="geometry">
            <mxPoint x="40" y="430" as="targetPoint" />
          </mxGeometry>
        </mxCell>
        <mxCell id="EJV__ujZelWqGnJyHGr9-34" value="&amp;nbsp;Further review" style="html=1;whiteSpace=wrap;" parent="EJV__ujZelWqGnJyHGr9-46" vertex="1">
          <mxGeometry x="60" y="640" width="60.25" height="40" as="geometry" />
        </mxCell>
        <mxCell id="EJV__ujZelWqGnJyHGr9-39" value="Researchers draw conclusion from report" style="html=1;whiteSpace=wrap;" parent="EJV__ujZelWqGnJyHGr9-46" vertex="1">
          <mxGeometry x="155" y="710" width="110" height="50" as="geometry" />
        </mxCell>
        <mxCell id="EJV__ujZelWqGnJyHGr9-40" style="edgeStyle=orthogonalEdgeStyle;rounded=0;orthogonalLoop=1;jettySize=auto;html=1;exitX=0.5;exitY=1;exitDx=0;exitDy=0;entryX=0.5;entryY=0;entryDx=0;entryDy=0;" parent="EJV__ujZelWqGnJyHGr9-46" source="EJV__ujZelWqGnJyHGr9-31" target="EJV__ujZelWqGnJyHGr9-39" edge="1">
          <mxGeometry relative="1" as="geometry" />
        </mxCell>
        <mxCell id="EJV__ujZelWqGnJyHGr9-41" value="" style="ellipse;html=1;shape=endState;fillColor=#000000;strokeColor=#6A8CFF;" parent="EJV__ujZelWqGnJyHGr9-46" vertex="1">
          <mxGeometry x="370" y="720" width="30" height="30" as="geometry" />
        </mxCell>
        <mxCell id="EJV__ujZelWqGnJyHGr9-42" style="edgeStyle=orthogonalEdgeStyle;rounded=0;orthogonalLoop=1;jettySize=auto;html=1;entryX=0;entryY=0.5;entryDx=0;entryDy=0;" parent="EJV__ujZelWqGnJyHGr9-46" source="EJV__ujZelWqGnJyHGr9-39" target="EJV__ujZelWqGnJyHGr9-41" edge="1">
          <mxGeometry relative="1" as="geometry" />
        </mxCell>
        <mxCell id="EJV__ujZelWqGnJyHGr9-45" value="End" style="text;html=1;align=center;verticalAlign=middle;resizable=0;points=[];autosize=1;strokeColor=none;fillColor=none;" parent="EJV__ujZelWqGnJyHGr9-46" vertex="1">
          <mxGeometry x="365" y="740" width="40" height="30" as="geometry" />
        </mxCell>
      </root>
    </mxGraphModel>
  </diagram>
</mxfile>
